# xmcd CD database file
#
# Track frame offsets:
#	150
#	63082
#	114307
#	180082
#	245332
#
# Disc length: 4363 seconds
#
# Revision: 0
# Processed by: cddbd v1.5.2PL0 Copyright (c) Steve Scherf et al.
# Submitted via: CDex 1.70beta3
#
DISCID=2f110905
DTITLE=Tamaxille - Live at Shinjuku PIT INN
DYEAR=2017
DGENRE=Jazz
TTITLE0=Solar
TTITLE1=Quiet Moment
TTITLE2=Right Off
TTITLE3=I Remenber Clifford
TTITLE4=流氷
EXTD=YEAR: 2017
EXTT0=
EXTT1=
EXTT2=
EXTT3=
EXTT4=
PLAYORDER=
